<svg width="40" height="40" viewBox="0 0 40 40" fill="none" xmlns="http://www.w3.org/2000/svg">
<rect width="40" height="40" rx="12" fill="#615EFF"/>
<path fill-rule="evenodd" clip-rule="evenodd" d="M16.8195 12.4267C19.0318 10.0227 22.6952 9.31749 25.7072 10.7051C29.7087 12.5487 31.1688 17.2454 28.9899 20.8687L24.0888 29.0095C23.8149 29.4646 23.3642 29.7964 22.8358 29.9324C22.3073 30.0684 21.7441 29.9975 21.2699 29.7352L27.2034 19.8772C28.7842 17.2475 27.7269 13.8393 24.8257 12.4976C22.6486 11.4907 19.9879 11.9935 18.3795 13.7252C17.4926 14.6756 16.9945 15.9032 16.9777 17.1793C16.961 18.4559 17.4271 19.6945 18.2891 20.6663C18.4442 20.8408 18.611 21.0051 18.7882 21.1581L15.3242 26.9237C15.1886 27.1493 15.0082 27.3465 14.7935 27.5052C14.5783 27.6634 14.3333 27.7797 14.0716 27.847C13.8098 27.9144 13.5368 27.9314 13.2683 27.8978C12.9998 27.8637 12.7407 27.7793 12.5057 27.6494L16.2662 21.3903C15.726 20.6423 15.3382 19.8029 15.123 18.9167L12.8189 22.7595C12.545 23.2147 12.0943 23.5465 11.5659 23.6824C11.0374 23.8184 10.4742 23.7476 10 23.4853L15.9593 13.5717C16.2075 13.1643 16.4954 12.7809 16.8195 12.4267ZM23.6978 15.5823C25.1331 16.3784 25.6285 18.1486 24.7981 19.5266L19.0838 29.0086C18.8099 29.4637 18.3592 29.7956 17.8308 29.9315C17.3023 30.0675 16.7391 29.9967 16.2649 29.7344L21.571 20.9063C21.1451 20.8202 20.7442 20.6466 20.3952 20.397C20.0462 20.1474 19.7578 19.8282 19.5499 19.4614C19.3419 19.0942 19.2194 18.6885 19.1905 18.2714C19.1616 17.8544 19.2276 17.4364 19.3835 17.0464C19.5395 16.6565 19.7813 16.3032 20.0932 16.0116C20.4051 15.72 20.779 15.4971 21.189 15.358C21.5994 15.219 22.0361 15.167 22.4692 15.2055C22.9022 15.2439 23.3213 15.3725 23.6978 15.5823ZM21.6193 17.3643C21.5212 17.4368 21.4385 17.5269 21.377 17.6301H21.3766C21.2835 17.7853 21.2401 17.9632 21.2523 18.142C21.2645 18.3208 21.3318 18.4918 21.4453 18.6339C21.5588 18.7759 21.7138 18.8826 21.8901 18.9399C22.0669 18.9976 22.2572 19.0033 22.4371 18.9569C22.6174 18.9106 22.7788 18.814 22.9018 18.6793C23.0247 18.5447 23.1034 18.3781 23.1278 18.2006C23.1522 18.0231 23.121 17.8426 23.0387 17.6817C22.9565 17.5212 22.8258 17.3874 22.6645 17.2978C22.5573 17.2384 22.4389 17.1999 22.3159 17.1842C22.193 17.1689 22.0682 17.1763 21.9489 17.2073C21.8295 17.2388 21.7174 17.2917 21.6193 17.3643Z" fill="white"/>
</svg>
