<svg width="40" height="40" viewBox="0 0 40 40" fill="none" xmlns="http://www.w3.org/2000/svg">
<rect width="40" height="40" rx="12" fill="#3D2798"/>
<g clip-path="url(#clip0_1510_3955)">
<path d="M26.1037 22.6935C25.74 22.6935 25.3762 22.6935 25.0125 22.6935C24.4542 22.6905 24.1832 22.488 24.0371 21.9388C23.8631 21.2857 23.7122 20.6264 23.5339 19.9744C23.4194 19.5536 23.249 19.1595 22.9277 18.8427C22.7415 18.6546 22.615 18.4155 22.564 18.1555C22.5124 17.9237 22.3172 17.8477 22.162 18.007C21.7765 18.4042 21.263 18.5781 20.7974 18.8317C20.0621 19.2319 19.4425 19.7367 19.0818 20.5175C18.9103 20.8885 18.9788 21.1135 19.3625 21.2516C19.5739 21.3172 19.7891 21.3696 20.0069 21.4085C20.3591 21.4888 20.6077 21.6864 20.7077 22.0416C20.772 22.2678 20.7077 22.4296 20.4652 22.5172C20.1537 22.6353 19.8234 22.6957 19.4904 22.6954C18.8648 22.6905 18.2392 22.6954 17.6111 22.6954C16.9067 22.6954 16.5339 22.3658 16.4648 21.6536C16.3629 20.5978 16.5545 19.6229 17.2698 18.7952C17.385 18.6621 17.6069 18.5191 17.4711 18.3087C17.3498 18.1263 17.1213 18.1816 16.9358 18.2169C16.0756 18.3811 15.1965 18.5021 14.5109 19.1255C13.9708 19.612 13.4434 20.1162 13.1584 20.8101C12.9954 21.2078 13.0372 21.3057 13.444 21.4791C13.6107 21.549 13.7828 21.6068 13.9508 21.6743C14.1514 21.7552 14.2975 21.8804 14.2915 22.1213C14.2854 22.3621 14.1593 22.5178 13.9471 22.6078C13.7186 22.7063 13.4725 22.7057 13.2318 22.7069C12.6256 22.7106 12.0193 22.7027 11.4161 22.6954C11.2343 22.6954 11.0573 22.6765 10.9021 22.553C10.7723 22.4509 10.6177 22.4612 10.4729 22.5287C9.37378 23.0396 8.17528 22.5567 7.68424 21.4085C7.46782 20.9007 7.4072 20.3916 7.67879 19.8881C8.07102 19.1644 8.10315 18.3592 8.2153 17.5734C8.25805 17.3211 8.21893 17.0617 8.10374 16.8333C7.1647 15.0873 8.18802 12.5902 9.91817 11.608C11.0845 10.9451 12.2873 10.3649 13.6161 10.0876C14.4715 9.90878 15.3014 10.0462 16.135 10.2025C17.3335 10.4263 18.5223 10.7012 19.7402 10.8107C20.2724 10.8656 20.8086 10.8707 21.3418 10.8259C22.489 10.7139 23.6469 10.8277 24.7506 11.161C25.7448 11.4571 26.7669 11.3921 27.7817 11.3556C27.9228 11.3469 28.0564 11.289 28.1594 11.192C28.5837 10.8368 29.0657 10.8982 29.4106 11.3446C29.5046 11.4663 29.6398 11.5052 29.7677 11.5581C30.629 11.9049 31.4331 12.3799 32.1532 12.9672C32.6212 13.3546 32.6176 13.6137 32.0756 13.9178C31.741 14.1057 31.5227 14.3088 31.5779 14.7175C31.6027 14.8999 31.4597 14.9297 31.3354 14.9608C30.0363 15.3007 28.7214 15.5507 27.3786 15.6401C26.9355 15.6645 26.4945 15.7175 26.0582 15.7988C25.8157 15.8469 25.7048 15.9813 25.6721 16.2245C25.4581 17.8526 25.9327 19.3195 26.7081 20.7164C26.8239 20.9244 27.0458 20.9986 27.2488 21.0813C27.5083 21.1902 27.7781 21.2741 28.0369 21.3854C28.314 21.5022 28.5219 21.6937 28.5219 22.0185C28.5219 22.3433 28.257 22.4442 28.0194 22.5549C27.7084 22.7008 27.375 22.7051 27.0409 22.7045H26.1031L26.1037 22.6935ZM10.448 21.7898C10.5371 21.4894 10.6256 21.2218 10.696 20.9487C10.8487 20.3527 11.0288 19.7622 11.0694 19.1425C11.0766 19.0288 11.0694 18.9126 10.9433 18.8615C10.8269 18.8153 10.7432 18.8883 10.6863 18.9716C10.3498 19.4618 9.9685 19.9215 9.68175 20.4458C9.63151 20.5286 9.60574 20.624 9.60746 20.7209C9.60917 20.8178 9.63829 20.9122 9.69143 20.9931C9.88293 21.3107 10.1411 21.5825 10.448 21.7898Z" fill="#FDFDFE"/>
<path d="M15.5688 27.6799C15.5688 28.7484 15.1075 29.5044 14.3054 29.817C13.347 30.1873 12.2564 29.9872 11.6562 29.2891C11.0027 28.5289 10.9846 27.6349 11.2974 26.7476C11.578 25.9521 12.22 25.5422 13.0512 25.4704C13.9914 25.3859 14.7898 25.6462 15.2942 26.511C15.4957 26.8661 15.591 27.2719 15.5688 27.6799ZM14.6667 27.7218C14.7274 26.6758 13.929 26.0731 12.9942 26.2939C12.4564 26.421 12.1333 26.7871 12.0588 27.3247C11.9733 27.9402 11.9848 28.5587 12.5759 28.9594C13.0311 29.269 13.5337 29.272 14.0126 29.0245C14.5285 28.7575 14.6777 28.2734 14.6643 27.7218H14.6667Z" fill="#FAFAFC"/>
<path d="M26.71 27.7206C26.7161 29.1108 25.857 29.986 24.4815 29.989C23.1327 29.9927 22.2743 29.1194 22.267 27.7358C22.2597 26.3522 23.1097 25.4625 24.4494 25.4552C25.8468 25.4479 26.7039 26.3066 26.71 27.7206ZM23.1684 27.7108C23.1612 28.1974 23.2582 28.6432 23.6844 28.9393C24.1493 29.2623 24.658 29.2793 25.1466 29.0275C25.7431 28.7198 25.8377 28.153 25.8061 27.546C25.7782 27.0102 25.5636 26.5943 25.055 26.3638C25.0189 26.3464 24.9819 26.3312 24.9441 26.3182C23.9747 26.0025 23.1709 26.6332 23.1684 27.7108Z" fill="#FAFAFC"/>
<path d="M18.8152 25.454C19.6154 25.4461 20.2004 25.7045 20.5678 26.3704C20.6799 26.5748 20.6575 26.7043 20.4005 26.7353C20.3206 26.7464 20.2425 26.7681 20.1683 26.7998C19.9591 26.8874 19.833 26.8856 19.7227 26.6222C19.5233 26.1467 18.5806 26.0141 18.2174 26.3826C17.9834 26.6186 18.0641 26.9762 18.3884 27.1252C18.6763 27.2584 18.9946 27.2748 19.2977 27.3387C19.5651 27.3889 19.827 27.4648 20.0798 27.5655C20.492 27.7376 20.7721 28.0234 20.8133 28.4838C20.8569 28.9703 20.7072 29.3803 20.2877 29.6661C19.5699 30.1526 18.209 30.0778 17.553 29.5116C17.3105 29.2949 17.1411 29.0081 17.068 28.6906C17.0389 28.5799 17.0396 28.4905 17.1893 28.4777C17.2493 28.4696 17.3082 28.4552 17.3651 28.4346C17.6585 28.3433 17.8719 28.2716 18.0186 28.7095C18.2071 29.2696 19.2529 29.4532 19.7269 29.0792C20.0422 28.8305 19.9985 28.4224 19.636 28.2491C19.3499 28.1122 19.0352 28.0849 18.7267 28.0247C18.4591 27.9766 18.1978 27.8984 17.9477 27.7917C17.4827 27.5843 17.2032 27.2407 17.2087 26.7147C17.2141 26.1886 17.4869 25.8188 17.964 25.609C18.232 25.492 18.5233 25.439 18.8152 25.454Z" fill="#FAF9FC"/>
</g>
<defs>
<clipPath id="clip0_1510_3955">
<rect width="25" height="20" fill="white" transform="translate(7.5 10)"/>
</clipPath>
</defs>
</svg>
