<svg width="40" height="40" viewBox="0 0 40 40" fill="none" xmlns="http://www.w3.org/2000/svg">
<rect width="40" height="40" rx="12" fill="#49B881"/>
<path d="M22.461 23.295H10.9604C10.4322 23.295 10 22.8759 10 22.3636C10 21.8513 10.4322 21.4321 10.9604 21.4321H22.461C22.9892 21.4321 23.4214 21.8513 23.4214 22.3636C23.4214 22.8759 22.9892 23.295 22.461 23.295Z" fill="white"/>
<path d="M20.012 29.0001C19.0757 29.0001 18.1393 28.8603 17.2509 28.6042C16.7467 28.4412 16.4586 27.9289 16.6267 27.4399C16.7947 26.9509 17.323 26.6715 17.8272 26.8345C18.5234 27.044 19.2677 27.1605 20.012 27.1605C23.2773 27.1605 26.1105 25.1346 27.0468 22.1074C27.1909 21.6184 27.7431 21.339 28.2473 21.4787C28.7515 21.6184 29.0396 22.154 28.8956 22.643C27.6711 26.4386 24.1177 29.0001 20.012 29.0001Z" fill="white"/>
<path d="M29.0396 18.5679H17.539C17.0108 18.5679 16.5786 18.1488 16.5786 17.6365C16.5786 17.1242 17.0108 16.7051 17.539 16.7051H29.0396C29.5678 16.7051 30 17.1242 30 17.6365C30 18.1488 29.5678 18.5679 29.0396 18.5679Z" fill="white"/>
<path d="M12.0408 18.5679C11.9448 18.5679 11.8488 18.5446 11.7527 18.5213C11.2485 18.3816 10.9604 17.846 11.1045 17.357C12.329 13.5614 15.8824 11 20.012 11C20.9484 11 21.8848 11.1397 22.7731 11.3959C23.2773 11.5589 23.5654 12.0712 23.3974 12.5602C23.2293 13.0492 22.7011 13.3286 22.1969 13.1656C21.5006 12.956 20.7563 12.8396 20.012 12.8396C16.7467 12.8396 13.9136 14.8655 12.9772 17.8926C12.8332 18.3118 12.449 18.5679 12.0408 18.5679Z" fill="white"/>
<path d="M25.7022 15.0285C26.2326 15.0285 26.6626 14.6115 26.6626 14.0971C26.6626 13.5827 26.2326 13.1656 25.7022 13.1656C25.1718 13.1656 24.7418 13.5827 24.7418 14.0971C24.7418 14.6115 25.1718 15.0285 25.7022 15.0285Z" fill="white"/>
<path d="M14.2977 26.8577C14.8281 26.8577 15.258 26.4407 15.258 25.9263C15.258 25.4119 14.8281 24.9949 14.2977 24.9949C13.7673 24.9949 13.3373 25.4119 13.3373 25.9263C13.3373 26.4407 13.7673 26.8577 14.2977 26.8577Z" fill="white"/>
</svg>
