<svg width="480" height="480" viewBox="0 0 480 480" fill="none" xmlns="http://www.w3.org/2000/svg">
<path d="M0 110C0 49.2487 49.2487 0 110 0H370C430.751 0 480 49.2487 480 110V370C480 430.751 430.751 480 370 480H110C49.2487 480 0 430.751 0 370V110Z" fill="#FF7E1D"/>
<g clip-path="url(#clip0_3107_1048)">
<g clip-path="url(#clip1_3107_1048)">
<path d="M378.25 262C373.75 291.25 360.25 317.75 339 339C317.75 360.25 291.25 373.75 262 378.25C262 378 261.75 377.75 261.75 377.5V377.25C261.5 376.75 261.5 376.5 261.25 375.75C261 375 260.75 374.25 260.5 373.5C259.25 370 258.5 366 257.75 362V361.75C257.75 361.25 257.5 360.75 257.5 360.25V360C257.5 359.5 257.25 359 257.25 358.75V358.25C257.25 357.75 257 357.25 257 356.5C256.75 355.25 256.75 354 256.75 352.5V352C256.75 351.75 256.75 351.5 256.75 351.25V350.75C256.75 349.25 256.5 347.75 256.5 346C256.5 296.5 297 256 346.5 256C348 256 349.75 256 351.25 256H351.75C352 256 352.25 256 352.5 256H353C354.25 256 355.75 256.25 357 256.5C357.5 256.5 358.25 256.5 359 256.75C359.5 256.75 360 257 360.25 257H360.5C361 257 361.5 257 362 257.25H362.25C366.25 258 370 259 374 260.25C374.75 260.5 375.5 260.75 376.25 261C376.75 261.25 377 261.25 377.5 261.5H377.75C377.75 261.75 378 262 378.25 262Z" fill="white"/>
<path opacity="0.6" d="M380 241.5H379.75C377.5 240.75 375.25 240.25 373 239.5C372.75 239.5 372.5 239.25 372 239.25C370 238.75 368 238.25 365.75 238C365.75 238 365.75 238 365.5 238C365 238 364.25 237.75 363.75 237.75H363.25C362.5 237.75 361.75 237.5 361.25 237.5C360.5 237.5 359.5 237.25 359 237.25C357.5 237 355.75 237 354.25 236.75C353.75 236.75 353.25 236.75 352.75 236.75H351.5C349.75 236.75 348 236.75 346 236.75C285.25 236.75 236 286 236 346.75C236 348.5 236 350.25 236.25 352.25V353.5C236.25 354 236.25 354.5 236.5 355C236.75 356.5 236.75 358.25 237 359.75C237 360.5 237.25 361.25 237.25 362C237.25 362.75 237.5 363.5 237.5 364C237.75 365 237.75 365.75 238 366.5C238.75 371.25 240 376 241.5 380.75C241.5 380.75 241.5 380.75 241.5 381C210.5 381.5 181 371.75 156.25 353.25C156.25 352.75 156.25 352.25 156.25 352C156.25 350.5 156.25 348.75 156.25 347.25C156.25 242.5 241.5 157.25 346.25 157.25C347.75 157.25 349.5 157.25 351 157.25C351.5 157.25 352 157.25 352.25 157.25C370.75 180.75 380.25 210.5 380 241.5Z" fill="white"/>
<path opacity="0.3" d="M334.25 136.25C333.25 136.25 332 136.5 331 136.5C329.25 136.5 327.75 136.75 326 137C325.5 137 324.75 137 324.25 137.25C323.75 137.25 323.5 137.25 323 137.5C320 137.75 317 138.25 314 138.75C311.75 139 309.75 139.5 307.5 139.75C306.25 140 304.75 140.25 303.5 140.5C302 140.75 300.5 141.25 298.75 141.5C298.25 141.75 297.5 141.75 297 142C296 142.25 294.75 142.5 293.75 142.75C293.25 142.75 293 143 292.5 143C291.25 143.25 290 143.5 289 144C288.5 144.25 287.75 144.25 287.25 144.5C286.25 144.75 285.5 145 284.5 145.25C283.75 145.5 283 145.75 282.5 146C281.25 146.25 280.25 146.75 279.25 147C279 147 278.75 147.25 278.5 147.25C277 147.75 275.5 148.25 274 149C272.25 149.5 270.75 150.25 269.25 150.75C268.25 151 267.25 151.5 266.5 152C265.5 152.25 264.75 152.75 263.75 153C262.25 153.75 260.5 154.25 259 155C256.25 156.25 253.5 157.5 250.75 159C247.25 160.75 244 162.5 240.5 164.5C239.5 165.25 238.25 165.75 237.25 166.5C236 167.25 234.75 168 233.25 169C232 169.75 230.75 170.5 229.75 171.25C228.75 172 227.5 172.75 226.5 173.5C225.5 174.25 224.5 175 223.5 175.75C221 177.5 218.75 179.25 216.5 181C215.5 181.75 214.75 182.5 213.75 183.25C212.25 184.5 210.5 186 209 187.25C207.75 188.25 206.5 189.5 205.25 190.5C204.25 191.25 203.5 192.25 202.5 193C199.5 196 196.5 198.75 193.5 202C192.5 203 191.75 203.75 191 204.75C189.75 206 188.75 207.25 187.75 208.5C186.25 210 185 211.75 183.75 213.25C183 214.25 182.25 215 181.5 216C179.75 218.25 178 220.75 176.25 223C175.5 224 174.75 225 174 226C173.25 227 172.5 228.25 171.75 229.25C171 230.5 170.25 231.5 169.5 232.75C168.75 234 167.75 235.25 167 236.75C166.25 237.75 165.75 239 165 240C163 243.25 161.25 246.75 159.5 250C158 252.75 156.75 255.5 155.5 258.25C154.75 259.75 154 261.25 153.5 263C153.25 263.75 152.75 264.75 152.5 265.75C152 266.75 151.75 267.75 151.25 268.5C150.5 270 150 271.75 149.5 273.25C149 274.75 148.5 276.25 147.75 277.75C147.75 278 147.5 278.25 147.5 278.5C147 279.5 146.75 280.75 146.5 281.75C146.25 282.5 146 283.25 145.75 283.75C145.5 284.75 145.25 285.5 145 286.5C144.75 287 144.75 287.75 144.5 288.25C144.25 289.5 143.75 290.75 143.5 291.75C143.5 292 143.25 292.5 143.25 293C143 294 142.75 295.25 142.5 296.25C142.5 296.75 142.25 297.25 142 298C141.75 299.5 141.25 301 141 302.75C140.75 304 140.5 305.25 140.25 306.75C139.75 309 139.5 311 139.25 313.25C138.75 316.25 138.5 319.25 138 322.25C138 322.75 138 323 137.75 323.5C137.75 324 137.75 324.5 137.5 325.25C137.25 327 137.25 328.5 137 330.25C137 331.25 136.75 332.5 136.75 333.5C113.25 308.75 100.5 276.25 99.9999 241.75C99.4999 205 113.25 170 138.5 143.5C139.25 142.5 140.25 141.75 141 141C141.75 140.25 142.75 139.25 143.5 138.5C169.75 113.75 204 100 240 100H241.75C276.25 100.5 308.75 113.25 334.25 136.25Z" fill="white"/>
</g>
</g>
<defs>
<clipPath id="clip0_3107_1048">
<rect width="280" height="280" fill="white" transform="translate(100 100)"/>
</clipPath>
<clipPath id="clip1_3107_1048">
<rect width="280" height="280" fill="white" transform="translate(100 100)"/>
</clipPath>
</defs>
</svg>
