<svg width="128" height="38" viewBox="0 0 128 38" fill="none" xmlns="http://www.w3.org/2000/svg">
<g clip-path="url(#clip0_456_291)">
<g clip-path="url(#clip1_456_291)">
<path d="M111.761 28.755C110.137 27.9073 108.906 26.6623 108.041 25.0729C107.151 23.4835 106.732 21.6557 106.732 19.5894C106.732 17.5232 107.177 15.6954 108.041 14.106C108.906 12.5166 110.163 11.298 111.761 10.4239C113.384 9.57618 115.244 9.12585 117.366 9.12585C119.487 9.12585 121.347 9.54969 122.971 10.4239C124.595 11.298 125.826 12.5166 126.69 14.106C127.555 15.6954 128 17.5232 128 19.5894C128 21.6821 127.555 23.51 126.69 25.0994C125.8 26.6888 124.569 27.9073 122.971 28.755C121.347 29.6027 119.487 30.053 117.366 30.053C115.244 30.053 113.358 29.6292 111.761 28.755ZM121.033 23.8543C121.923 22.7682 122.395 21.3378 122.395 19.6159C122.395 17.8676 121.949 16.4636 121.033 15.3775C120.116 14.2914 118.911 13.7351 117.366 13.7351C115.847 13.7351 114.642 14.2914 113.725 15.3775C112.808 16.4636 112.363 17.8676 112.363 19.6159C112.363 21.3643 112.808 22.7947 113.725 23.8543C114.642 24.9404 115.847 25.4967 117.366 25.4967C118.911 25.4967 120.116 24.9404 121.033 23.8543Z" fill="white"/>
<path d="M104.819 9.39076V29.2053C104.819 31.8808 103.929 34.0265 102.2 35.6159C100.445 37.2053 97.7212 38 94.0281 38C91.1731 38 88.8681 37.3643 87.1132 36.0927C85.3583 34.8212 84.4153 33.0199 84.2844 30.6888H89.8634C90.1254 31.6689 90.6492 32.4106 91.4088 32.9404C92.1684 33.4702 93.1899 33.7351 94.4471 33.7351C96.0187 33.7351 97.2498 33.3378 98.1141 32.5431C98.9785 31.7484 99.4238 30.5563 99.4238 29.0199V26.8742C97.957 28.755 95.8616 29.6822 93.1899 29.6822C91.4088 29.6822 89.811 29.2583 88.3966 28.4106C86.9822 27.5629 85.8821 26.3709 85.0702 24.808C84.2582 23.2716 83.8653 21.4437 83.8653 19.3775C83.8653 17.3378 84.2582 15.5365 85.0702 13.9735C85.8559 12.4106 86.9822 11.2186 88.4228 10.3709C89.8372 9.52321 91.4612 9.09937 93.2423 9.09937C95.8877 9.09937 97.9832 10.1325 99.5285 12.1987L100 9.39076H104.819ZM98.0356 23.6159C98.9261 22.5563 99.3714 21.1788 99.3714 19.4835C99.3714 17.7616 98.9261 16.3576 98.0356 15.2716C97.145 14.1855 95.9401 13.6557 94.4471 13.6557C92.9542 13.6557 91.7493 14.1855 90.8587 15.2716C89.942 16.3312 89.4967 17.7351 89.4967 19.457C89.4967 21.1788 89.942 22.5828 90.8587 23.6424C91.7755 24.702 92.9542 25.2318 94.4471 25.2318C95.9401 25.2053 97.145 24.6755 98.0356 23.6159Z" fill="white"/>
<path d="M81.9532 9.39076V29.8146H77.029L76.5575 26.9537C74.9598 28.9934 72.8644 30 70.2713 30C68.4902 30 66.8924 29.5762 65.478 28.7285C64.0636 27.8808 62.9635 26.6623 62.1515 25.0729C61.3396 23.4835 60.9467 21.6557 60.9467 19.5364C60.9467 17.4702 61.3396 15.6424 62.1515 14.053C62.9373 12.4636 64.0636 11.2451 65.5042 10.3709C66.9186 9.52321 68.5426 9.07288 70.3237 9.07288C71.6857 9.07288 72.8906 9.33778 73.9383 9.86758C74.986 10.3974 75.8503 11.1391 76.5313 12.0398L77.0814 9.33778H81.9532V9.39076ZM75.1693 23.8808C76.0599 22.8212 76.5052 21.3908 76.5052 19.6424C76.5052 17.8676 76.0599 16.4371 75.1693 15.351C74.2788 14.2649 73.0739 13.7086 71.5809 13.7086C70.0879 13.7086 68.8831 14.2649 67.9925 15.351C67.0758 16.4371 66.6305 17.8676 66.6305 19.6424C66.6305 21.3908 67.0758 22.7947 67.9925 23.8808C68.9093 24.9669 70.0879 25.4967 71.5809 25.4967C73.0739 25.4967 74.2788 24.9404 75.1693 23.8808Z" fill="white"/>
<path d="M44 29.8146V2H49.8934V24.702H60.8157V29.8146H44Z" fill="white"/>
</g>
<g clip-path="url(#clip2_456_291)">
<g clip-path="url(#clip3_456_291)">
<path d="M31.8 18.5143C31.2857 21.8571 29.7429 24.8857 27.3143 27.3143C24.8857 29.7428 21.8572 31.2857 18.5143 31.8C18.5143 31.7714 18.4857 31.7428 18.4857 31.7143V31.6857C18.4572 31.6286 18.4572 31.6 18.4286 31.5143C18.4 31.4286 18.3714 31.3428 18.3429 31.2571C18.2 30.8571 18.1143 30.4 18.0286 29.9428V29.9143C18.0286 29.8571 18 29.8 18 29.7428V29.7143C18 29.6571 17.9714 29.6 17.9714 29.5714V29.5143C17.9714 29.4571 17.9429 29.4 17.9429 29.3143C17.9143 29.1714 17.9143 29.0286 17.9143 28.8571V28.8C17.9143 28.7714 17.9143 28.7428 17.9143 28.7143V28.6571C17.9143 28.4857 17.8857 28.3143 17.8857 28.1143C17.8857 22.4571 22.5143 17.8286 28.1714 17.8286C28.3429 17.8286 28.5429 17.8286 28.7143 17.8286H28.7714C28.8 17.8286 28.8286 17.8286 28.8572 17.8286H28.9143C29.0572 17.8286 29.2286 17.8571 29.3714 17.8857C29.4286 17.8857 29.5143 17.8857 29.6 17.9143C29.6572 17.9143 29.7143 17.9428 29.7429 17.9428H29.7714C29.8286 17.9428 29.8857 17.9428 29.9429 17.9714H29.9714C30.4286 18.0571 30.8572 18.1714 31.3143 18.3143C31.4 18.3428 31.4857 18.3714 31.5714 18.4C31.6286 18.4286 31.6572 18.4286 31.7143 18.4571H31.7429C31.7429 18.4857 31.7714 18.5143 31.8 18.5143Z" fill="white"/>
<path opacity="0.6" d="M32 16.1714H31.9714C31.7143 16.0857 31.4571 16.0286 31.2 15.9428C31.1714 15.9428 31.1429 15.9143 31.0857 15.9143C30.8571 15.8571 30.6286 15.8 30.3714 15.7714C30.3714 15.7714 30.3714 15.7714 30.3429 15.7714C30.2857 15.7714 30.2 15.7428 30.1429 15.7428H30.0857C30 15.7428 29.9143 15.7143 29.8571 15.7143C29.7714 15.7143 29.6571 15.6857 29.6 15.6857C29.4286 15.6571 29.2286 15.6571 29.0571 15.6286C29 15.6286 28.9429 15.6286 28.8857 15.6286H28.7429C28.5429 15.6286 28.3429 15.6286 28.1143 15.6286C21.1714 15.6286 15.5429 21.2571 15.5429 28.2C15.5429 28.4 15.5429 28.6 15.5714 28.8286V28.9714C15.5714 29.0286 15.5714 29.0857 15.6 29.1428C15.6286 29.3143 15.6286 29.5143 15.6571 29.6857C15.6571 29.7714 15.6857 29.8571 15.6857 29.9429C15.6857 30.0286 15.7143 30.1143 15.7143 30.1714C15.7429 30.2857 15.7429 30.3714 15.7714 30.4571C15.8571 31 16 31.5429 16.1714 32.0857C16.1714 32.0857 16.1714 32.0857 16.1714 32.1143C12.6286 32.1714 9.25714 31.0571 6.42857 28.9429C6.42857 28.8857 6.42857 28.8286 6.42857 28.8C6.42857 28.6286 6.42857 28.4286 6.42857 28.2571C6.42857 16.2857 16.1714 6.54285 28.1429 6.54285C28.3143 6.54285 28.5143 6.54285 28.6857 6.54285C28.7429 6.54285 28.8 6.54285 28.8286 6.54285C30.9429 9.22856 32.0286 12.6286 32 16.1714Z" fill="white"/>
<path opacity="0.3" d="M26.7714 4.14286C26.6571 4.14286 26.5143 4.17143 26.4 4.17143C26.2 4.17143 26.0286 4.2 25.8286 4.22857C25.7714 4.22857 25.6857 4.22857 25.6286 4.25714C25.5714 4.25714 25.5428 4.25714 25.4857 4.28571C25.1428 4.31429 24.8 4.37143 24.4571 4.42857C24.2 4.45714 23.9714 4.51429 23.7143 4.54286C23.5714 4.57143 23.4 4.6 23.2571 4.62857C23.0857 4.65714 22.9143 4.71429 22.7143 4.74286C22.6571 4.77143 22.5714 4.77143 22.5143 4.8C22.4 4.82857 22.2571 4.85714 22.1428 4.88571C22.0857 4.88571 22.0571 4.91429 22 4.91429C21.8571 4.94286 21.7143 4.97143 21.6 5.02857C21.5428 5.05714 21.4571 5.05714 21.4 5.08571C21.2857 5.11429 21.2 5.14286 21.0857 5.17143C21 5.2 20.9143 5.22857 20.8571 5.25714C20.7143 5.28571 20.6 5.34286 20.4857 5.37143C20.4571 5.37143 20.4286 5.4 20.4 5.4C20.2286 5.45714 20.0571 5.51429 19.8857 5.6C19.6857 5.65714 19.5143 5.74286 19.3428 5.8C19.2286 5.82857 19.1143 5.88571 19.0286 5.94286C18.9143 5.97143 18.8286 6.02857 18.7143 6.05714C18.5428 6.14286 18.3428 6.2 18.1714 6.28571C17.8571 6.42857 17.5428 6.57143 17.2286 6.74286C16.8286 6.94286 16.4571 7.14286 16.0571 7.37143C15.9428 7.45714 15.8 7.51429 15.6857 7.6C15.5428 7.68571 15.4 7.77143 15.2286 7.88571C15.0857 7.97143 14.9428 8.05714 14.8286 8.14286C14.7143 8.22857 14.5714 8.31429 14.4571 8.4C14.3428 8.48571 14.2286 8.57143 14.1143 8.65714C13.8286 8.85714 13.5714 9.05714 13.3143 9.25714C13.2 9.34286 13.1143 9.42857 13 9.51429C12.8286 9.65714 12.6286 9.82857 12.4571 9.97143C12.3143 10.0857 12.1714 10.2286 12.0286 10.3429C11.9143 10.4286 11.8286 10.5429 11.7143 10.6286C11.3714 10.9714 11.0286 11.2857 10.6857 11.6571C10.5714 11.7714 10.4857 11.8571 10.4 11.9714C10.2571 12.1143 10.1428 12.2571 10.0286 12.4C9.85712 12.5714 9.71427 12.7714 9.57141 12.9429C9.48569 13.0571 9.39998 13.1429 9.31427 13.2571C9.11427 13.5143 8.91427 13.8 8.71427 14.0571C8.62855 14.1714 8.54284 14.2857 8.45712 14.4C8.37141 14.5143 8.2857 14.6571 8.19998 14.7714C8.11427 14.9143 8.02855 15.0286 7.94284 15.1714C7.85712 15.3143 7.74284 15.4571 7.65712 15.6286C7.57141 15.7429 7.51427 15.8857 7.42855 16C7.19998 16.3714 6.99998 16.7714 6.79998 17.1429C6.62855 17.4571 6.48569 17.7714 6.34284 18.0857C6.25712 18.2571 6.17141 18.4286 6.11427 18.6286C6.08569 18.7143 6.02855 18.8286 5.99998 18.9429C5.94284 19.0571 5.91427 19.1714 5.85712 19.2571C5.77141 19.4286 5.71427 19.6286 5.65712 19.8C5.59998 19.9714 5.54284 20.1429 5.45712 20.3143C5.45712 20.3429 5.42855 20.3714 5.42855 20.4C5.37141 20.5143 5.34284 20.6571 5.31427 20.7714C5.28569 20.8571 5.25712 20.9429 5.22855 21C5.19998 21.1143 5.17141 21.2 5.14284 21.3143C5.11427 21.3714 5.11427 21.4571 5.08569 21.5143C5.05712 21.6571 4.99998 21.8 4.97141 21.9143C4.97141 21.9429 4.94284 22 4.94284 22.0571C4.91427 22.1714 4.88569 22.3143 4.85712 22.4286C4.85712 22.4857 4.82855 22.5429 4.79998 22.6286C4.77141 22.8 4.71427 22.9714 4.68569 23.1714C4.65712 23.3143 4.62855 23.4571 4.59998 23.6286C4.54284 23.8857 4.51427 24.1143 4.48569 24.3714C4.42855 24.7143 4.39998 25.0571 4.34284 25.4C4.34284 25.4571 4.34284 25.4857 4.31427 25.5429C4.31427 25.6 4.31427 25.6571 4.28569 25.7429C4.25712 25.9429 4.25712 26.1143 4.22855 26.3143C4.22855 26.4286 4.19998 26.5714 4.19998 26.6857C1.51427 23.8571 0.0571224 20.1429 -2.04179e-05 16.2C-0.0571633 12 1.51427 8 4.39998 4.97143C4.48569 4.85714 4.59998 4.77143 4.68569 4.68571C4.77141 4.6 4.88569 4.48571 4.97141 4.4C7.97141 1.57143 11.8857 0 16 0H16.2C20.1428 0.0571429 23.8571 1.51429 26.7714 4.14286Z" fill="white"/>
</g>
</g>
</g>
<defs>
<clipPath id="clip0_456_291">
<rect width="128" height="38" fill="white"/>
</clipPath>
<clipPath id="clip1_456_291">
<rect width="84" height="36" fill="white" transform="translate(44 2)"/>
</clipPath>
<clipPath id="clip2_456_291">
<rect width="32" height="32" fill="white"/>
</clipPath>
<clipPath id="clip3_456_291">
<rect width="32" height="32" fill="white"/>
</clipPath>
</defs>
</svg>
