<svg width="675" height="200" viewBox="0 0 675 200" fill="none" xmlns="http://www.w3.org/2000/svg">
<g clip-path="url(#clip0_1744_18)">
<mask id="mask0_1744_18" style="mask-type:luminance" maskUnits="userSpaceOnUse" x="0" y="0" width="675" height="200">
<path d="M675 0H0V200H675V0Z" fill="white"/>
</mask>
<g mask="url(#mask0_1744_18)">
<mask id="mask1_1744_18" style="mask-type:luminance" maskUnits="userSpaceOnUse" x="232" y="10" width="443" height="190">
<path d="M675 10.5234H232.031V199.997H675V10.5234Z" fill="white"/>
</mask>
<g mask="url(#mask1_1744_18)">
<path d="M589.362 151.343C580.799 146.88 574.306 140.328 569.749 131.963C565.052 123.598 562.842 113.978 562.842 103.103C562.842 92.2278 565.19 82.6078 569.749 74.2424C574.306 65.8771 580.936 59.4638 589.362 54.8629C597.926 50.4014 607.732 48.0312 618.921 48.0312C630.109 48.0312 639.916 50.262 648.48 54.8629C657.044 59.4638 663.535 65.8771 668.094 74.2424C672.651 82.6078 675 92.2278 675 103.103C675 114.117 672.651 123.737 668.094 132.102C663.397 140.468 656.905 146.88 648.48 151.343C639.916 155.804 630.109 158.174 618.921 158.174C607.732 158.174 597.787 155.943 589.362 151.343ZM638.259 125.549C642.955 119.833 645.441 112.304 645.441 103.242C645.441 94.0402 643.092 86.6509 638.259 80.9346C633.424 75.2184 627.07 72.2905 618.921 72.2905C610.91 72.2905 604.556 75.2184 599.721 80.9346C594.887 86.6509 592.539 94.0402 592.539 103.242C592.539 112.444 594.887 119.973 599.721 125.549C604.556 131.265 610.91 134.194 618.921 134.194C627.07 134.194 633.424 131.265 638.259 125.549Z" fill="#19212E"/>
<path d="M552.759 49.4242V153.712C552.759 167.793 548.063 179.086 538.946 187.452C529.693 195.817 515.328 199.999 495.851 199.999C480.795 199.999 468.64 196.653 459.386 189.961C450.131 183.268 445.159 173.788 444.469 161.519H473.889C475.27 166.678 478.033 170.582 482.039 173.369C486.044 176.158 491.431 177.552 498.061 177.552C506.349 177.552 512.84 175.461 517.399 171.278C521.958 167.096 524.305 160.822 524.305 152.736V141.442C516.57 151.341 505.52 156.221 491.431 156.221C482.039 156.221 473.613 153.991 466.154 149.528C458.695 145.067 452.894 138.793 448.613 130.567C444.33 122.481 442.259 112.861 442.259 101.986C442.259 91.2506 444.33 81.77 448.613 73.5441C452.756 65.3183 458.695 59.0444 466.293 54.5829C473.751 50.1214 482.315 47.8906 491.708 47.8906C505.658 47.8906 516.709 53.328 524.858 64.2029L527.344 49.4242H552.759ZM516.985 124.294C521.681 118.717 524.029 111.467 524.029 102.544C524.029 93.4814 521.681 86.092 516.985 80.3757C512.289 74.6595 505.934 71.8711 498.061 71.8711C490.188 71.8711 483.834 74.6595 479.138 80.3757C474.304 85.9526 471.955 93.342 471.955 102.404C471.955 111.467 474.304 118.856 479.138 124.433C483.973 130.009 490.188 132.798 498.061 132.798C505.934 132.659 512.289 129.871 516.985 124.294Z" fill="#19212E"/>
<path d="M432.175 49.423V156.917H406.208L403.721 141.859C395.296 152.594 384.246 157.893 370.571 157.893C361.179 157.893 352.753 155.662 345.294 151.201C337.835 146.739 332.034 140.326 327.753 131.961C323.47 123.595 321.399 113.975 321.399 102.821C321.399 91.9465 323.47 82.3265 327.753 73.9612C331.896 65.5959 337.835 59.1825 345.433 54.5816C352.891 50.1201 361.455 47.75 370.848 47.75C378.03 47.75 384.384 49.1442 389.909 51.9326C395.434 54.721 399.993 58.6249 403.584 63.3651L406.484 49.1443H432.175V49.423ZM396.401 125.687C401.098 120.11 403.445 112.581 403.445 103.379C403.445 94.0379 401.098 86.5091 396.401 80.7929C391.705 75.0765 385.351 72.1488 377.478 72.1488C369.604 72.1488 363.25 75.0765 358.554 80.7929C353.72 86.5091 351.371 94.0379 351.371 103.379C351.371 112.581 353.72 119.97 358.554 125.687C363.389 131.403 369.604 134.192 377.478 134.192C385.351 134.192 391.705 131.263 396.401 125.687Z" fill="#19212E"/>
<path d="M232.031 156.916V10.5234H263.11V130.007H320.708V156.916H232.031Z" fill="#19212E"/>
</g>
</g>
<mask id="mask2_1744_18" style="mask-type:luminance" maskUnits="userSpaceOnUse" x="0" y="0" width="169" height="169">
<path d="M169 0H0V169H169V0Z" fill="white"/>
</mask>
<g mask="url(#mask2_1744_18)">
<path d="M167.944 97.7777C165.228 115.432 157.08 131.426 144.255 144.253C131.428 157.078 115.434 165.226 97.779 167.943C97.779 167.793 97.6282 167.641 97.6282 167.491V167.339C97.4774 167.037 97.4774 166.887 97.3263 166.435C97.1755 165.98 97.0247 165.528 96.8738 165.076C96.1193 162.964 95.6666 160.549 95.2138 158.135V157.985C95.2138 157.683 95.063 157.38 95.063 157.078V156.928C95.063 156.626 94.9122 156.324 94.9122 156.174V155.872C94.9122 155.57 94.7613 155.268 94.7613 154.816C94.6103 154.062 94.6103 153.305 94.6103 152.401V152.099C94.6103 151.949 94.6103 151.797 94.6103 151.647V151.345C94.6103 150.439 94.4595 149.535 94.4595 148.478C94.4595 118.601 118.904 94.1562 148.782 94.1562C149.686 94.1562 150.742 94.1562 151.648 94.1562H151.951C152.101 94.1562 152.25 94.1562 152.403 94.1562H152.705C153.459 94.1562 154.363 94.3071 155.119 94.4581C155.419 94.4581 155.873 94.4581 156.326 94.6089C156.628 94.6089 156.93 94.7598 157.08 94.7598H157.232C157.532 94.7598 157.834 94.7598 158.136 94.9108H158.288C160.7 95.3633 162.965 95.9671 165.38 96.7214C165.832 96.8723 166.284 97.0233 166.738 97.1742C167.038 97.325 167.19 97.325 167.492 97.4758H167.642C167.642 97.6269 167.794 97.7777 167.944 97.7777Z" fill="#FF7E1D"/>
<path opacity="0.6" d="M169 85.4055H168.85C167.492 84.9528 166.133 84.6511 164.775 84.1984C164.625 84.1984 164.473 84.0476 164.171 84.0476C162.964 83.7457 161.756 83.4438 160.4 83.293C160.4 83.293 160.4 83.293 160.248 83.293C159.946 83.293 159.494 83.1422 159.192 83.1422H158.889C158.437 83.1422 157.985 82.9913 157.683 82.9913C157.231 82.9913 156.627 82.8403 156.325 82.8403C155.419 82.6895 154.362 82.6895 153.458 82.5386C153.156 82.5386 152.854 82.5386 152.552 82.5386H151.798C150.742 82.5386 149.685 82.5386 148.479 82.5386C111.812 82.5386 82.0855 112.264 82.0855 148.931C82.0855 149.988 82.0855 151.044 82.2365 152.25V153.006C82.2365 153.306 82.2365 153.608 82.3874 153.911C82.5382 154.817 82.5382 155.873 82.689 156.777C82.689 157.231 82.8401 157.683 82.8401 158.136C82.8401 158.588 82.9909 159.042 82.9909 159.344C83.1417 159.946 83.1417 160.4 83.2928 160.852C83.7453 163.719 84.4998 166.586 85.4053 169.452C85.4053 169.452 85.4053 169.452 85.4053 169.604C66.6944 169.906 48.889 164.021 33.9507 152.854C33.9507 152.552 33.9507 152.25 33.9507 152.1C33.9507 151.194 33.9507 150.138 33.9507 149.233C33.9507 86.0091 85.4053 34.5547 148.629 34.5547C149.535 34.5547 150.592 34.5547 151.496 34.5547C151.798 34.5547 152.1 34.5547 152.25 34.5547C163.417 48.7386 169.15 66.6949 169 85.4055Z" fill="#FF7E1D"/>
<path opacity="0.3" d="M141.387 21.8794C140.783 21.8794 140.029 22.0302 139.425 22.0302C138.368 22.0302 137.462 22.1813 136.406 22.3321C136.106 22.3321 135.652 22.3321 135.35 22.4829C135.05 22.4829 134.898 22.4829 134.595 22.6337C132.785 22.7848 130.975 23.0865 129.164 23.3883C127.806 23.5392 126.599 23.841 125.241 23.9919C124.486 24.1427 123.581 24.2938 122.826 24.4446C121.921 24.5954 121.016 24.8973 119.959 25.0481C119.658 25.199 119.205 25.199 118.903 25.35C118.3 25.5008 117.545 25.6517 116.942 25.8025C116.64 25.8025 116.489 25.9535 116.187 25.9535C115.433 26.1044 114.678 26.2552 114.075 26.5571C113.773 26.7079 113.32 26.7079 113.018 26.8587C112.415 27.0098 111.962 27.1606 111.359 27.3115C110.906 27.4625 110.453 27.6133 110.151 27.7642C109.397 27.915 108.793 28.2169 108.19 28.3677C108.039 28.3677 107.888 28.5188 107.737 28.5188C106.832 28.8204 105.926 29.1223 105.021 29.575C103.965 29.8767 103.059 30.3294 102.154 30.6313C101.55 30.7821 100.947 31.0838 100.494 31.3856C99.8907 31.5365 99.438 31.8383 98.8344 31.9892C97.929 32.4419 96.8728 32.7438 95.9676 33.1962C94.3076 33.9508 92.6478 34.7052 90.988 35.6106C88.8755 36.6669 86.9138 37.7231 84.8013 38.9302C84.1978 39.3829 83.4434 39.6848 82.8399 40.1375C82.0853 40.59 81.3309 41.0427 80.4255 41.6462C79.6711 42.099 78.9165 42.5517 78.313 43.0044C77.7094 43.4571 76.9549 43.9098 76.3513 44.3625C75.7478 44.815 75.1442 45.2677 74.5407 45.7204C73.0317 46.7767 71.6736 47.8329 70.3157 48.8892C69.7121 49.3419 69.2594 49.7946 68.6559 50.2473C67.7505 51.0017 66.6942 51.9071 65.7888 52.6615C65.0344 53.265 64.2799 54.0196 63.5255 54.6231C62.922 55.0758 62.4692 55.6794 61.8657 56.1321C60.0551 57.9427 58.2442 59.6025 56.4336 61.5642C55.8301 62.1677 55.3774 62.6204 54.9247 63.224C54.1701 63.9785 53.5665 64.7329 52.963 65.4875C52.0576 66.3927 51.3032 67.449 50.5488 68.3544C50.0961 68.9579 49.6434 69.4106 49.1907 70.0142C48.1344 71.3723 47.0782 72.8813 46.0219 74.2392C45.5692 74.8427 45.1165 75.4463 44.6638 76.05C44.2113 76.6535 43.7586 77.4079 43.3059 78.0115C42.8532 78.766 42.4005 79.3696 41.9478 80.124C41.4951 80.8785 40.8915 81.6329 40.4388 82.5383C39.9863 83.1419 39.6844 83.8963 39.2317 84.5C38.0247 86.4615 36.9684 88.574 35.9122 90.5356C35.0067 92.1954 34.2524 93.8552 33.4978 95.515C33.0451 96.4204 32.5926 97.3258 32.2907 98.3821C32.1399 98.8348 31.838 99.4383 31.6872 100.042C31.3853 100.645 31.2344 101.249 30.9326 101.702C30.4801 102.607 30.1782 103.663 29.8763 104.569C29.5747 105.474 29.2728 106.379 28.8201 107.285C28.8201 107.436 28.6692 107.586 28.6692 107.738C28.3676 108.341 28.2165 109.095 28.0657 109.699C27.9149 110.152 27.7638 110.604 27.613 110.906C27.4622 111.51 27.3113 111.963 27.1603 112.566C27.0094 112.868 27.0094 113.32 26.8586 113.622C26.7076 114.377 26.4059 115.131 26.2551 115.735C26.2551 115.886 26.104 116.188 26.104 116.489C25.9532 117.093 25.8024 117.847 25.6513 118.451C25.6513 118.753 25.5005 119.054 25.3497 119.507C25.1988 120.413 24.8969 121.318 24.7461 122.374C24.5951 123.129 24.4442 123.883 24.2934 124.788C23.9915 126.146 23.8407 127.354 23.6899 128.711C23.388 130.522 23.2372 132.333 22.9353 134.144C22.9353 134.446 22.9353 134.596 22.7844 134.898C22.7844 135.2 22.7844 135.502 22.6336 135.954C22.4826 137.01 22.4826 137.916 22.3317 138.973C22.3317 139.575 22.1809 140.331 22.1809 140.933C7.99695 125.995 0.30132 106.379 -0.000345431 85.5563C-0.302222 63.375 7.99695 42.25 23.2372 26.2552C23.6899 25.6517 24.2934 25.199 24.7461 24.7462C25.1988 24.2938 25.8024 23.69 26.2551 23.2375C42.0988 8.29896 62.7711 0 84.4997 0H85.5559C106.379 0.301665 125.995 7.99729 141.387 21.8794Z" fill="#FF7E1D"/>
</g>
</g>
<defs>
<clipPath id="clip0_1744_18">
<rect width="675" height="200" fill="white"/>
</clipPath>
</defs>
</svg>
